<?xml version="1.0" encoding="UTF-8" standalone="no"?>
<!DOCTYPE svg PUBLIC "-//W3C//DTD SVG 1.1//EN"
 "http://www.w3.org/Graphics/SVG/1.1/DTD/svg11.dtd">
<!-- Generated by graphviz version 12.2.0 (20241103.1931)
 -->
<!-- Title: G Pages: 1 -->
<svg width="584pt" height="166pt"
 viewBox="0.00 0.00 583.75 166.00" xmlns="http://www.w3.org/2000/svg" xmlns:xlink="http://www.w3.org/1999/xlink">
<g id="graph0" class="graph" transform="scale(1 1) rotate(0) translate(4 162)">
<title>G</title>
<polygon fill="white" stroke="none" points="-4,4 -4,-162 579.75,-162 579.75,4 -4,4"/>
<!-- utxo1 -->
<g id="node1" class="node">
<title>utxo1</title>
<polygon fill="none" stroke="black" points="0,-88.5 0,-157.5 102.25,-157.5 102.25,-88.5 0,-88.5"/>
<text text-anchor="middle" x="51.12" y="-140.2" font-family="Helvetica,Arial,sans-serif" font-size="14.00">some&#45;address</text>
<polyline fill="none" stroke="black" points="0,-134.5 102.25,-134.5"/>
<text text-anchor="middle" x="51.12" y="-117.2" font-family="Helvetica,Arial,sans-serif" font-size="14.00">10 ₳</text>
<polyline fill="none" stroke="black" points="0,-111.5 102.25,-111.5"/>
<text text-anchor="middle" x="51.12" y="-94.2" font-family="Helvetica,Arial,sans-serif" font-size="14.00"> </text>
</g>
<!-- initial&#45;tx&#45;a -->
<g id="node2" class="node">
<title>initial&#45;tx&#45;a</title>
<path fill="none" stroke="black" d="M150.25,-100C150.25,-100 202.25,-100 202.25,-100 208.25,-100 214.25,-106 214.25,-112 214.25,-112 214.25,-134 214.25,-134 214.25,-140 208.25,-146 202.25,-146 202.25,-146 150.25,-146 150.25,-146 144.25,-146 138.25,-140 138.25,-134 138.25,-134 138.25,-112 138.25,-112 138.25,-106 144.25,-100 150.25,-100"/>
<text text-anchor="middle" x="176.25" y="-128.7" font-family="Helvetica,Arial,sans-serif" font-size="14.00">a&#45;v1</text>
<polyline fill="none" stroke="black" points="138.25,-123 214.25,-123"/>
<text text-anchor="middle" x="176.25" y="-105.7" font-family="Helvetica,Arial,sans-serif" font-size="14.00">σ(A, B, C)</text>
</g>
<!-- utxo1&#45;&gt;initial&#45;tx&#45;a -->
<g id="edge1" class="edge">
<title>utxo1&#45;&gt;initial&#45;tx&#45;a</title>
<path fill="none" stroke="black" d="M102.56,-123C110.5,-123 118.7,-123 126.6,-123"/>
<polygon fill="black" stroke="black" points="126.39,-126.5 136.39,-123 126.39,-119.5 126.39,-126.5"/>
</g>
<!-- a&#45;v1 -->
<g id="node3" class="node">
<title>a&#45;v1</title>
<polygon fill="none" stroke="black" points="250.25,-88.5 250.25,-157.5 347.25,-157.5 347.25,-88.5 250.25,-88.5"/>
<text text-anchor="middle" x="298.75" y="-140.2" font-family="Helvetica,Arial,sans-serif" font-size="14.00">PoP</text>
<polyline fill="none" stroke="black" points="250.25,-134.5 347.25,-134.5"/>
<text text-anchor="middle" x="298.75" y="-117.2" font-family="Helvetica,Arial,sans-serif" font-size="14.00">1 ₳ + 1 pop.a</text>
<polyline fill="none" stroke="black" points="250.25,-111.5 347.25,-111.5"/>
<text text-anchor="middle" x="298.75" y="-94.2" font-family="Helvetica,Arial,sans-serif" font-size="14.00">data(a, v1)</text>
</g>
<!-- initial&#45;tx&#45;a&#45;&gt;a&#45;v1 -->
<g id="edge2" class="edge">
<title>initial&#45;tx&#45;a&#45;&gt;a&#45;v1</title>
<path fill="none" stroke="black" d="M214.72,-123C222.32,-123 230.5,-123 238.65,-123"/>
<polygon fill="black" stroke="black" points="238.57,-126.5 248.57,-123 238.57,-119.5 238.57,-126.5"/>
</g>
<!-- new&#45;version&#45;tx&#45;a -->
<g id="node5" class="node">
<title>new&#45;version&#45;tx&#45;a</title>
<path fill="none" stroke="black" d="M395.25,-56C395.25,-56 430.75,-56 430.75,-56 436.75,-56 442.75,-62 442.75,-68 442.75,-68 442.75,-90 442.75,-90 442.75,-96 436.75,-102 430.75,-102 430.75,-102 395.25,-102 395.25,-102 389.25,-102 383.25,-96 383.25,-90 383.25,-90 383.25,-68 383.25,-68 383.25,-62 389.25,-56 395.25,-56"/>
<text text-anchor="middle" x="413" y="-84.7" font-family="Helvetica,Arial,sans-serif" font-size="14.00">a&#45;v2</text>
<polyline fill="none" stroke="black" points="383.25,-79 442.75,-79"/>
<text text-anchor="middle" x="413" y="-61.7" font-family="Helvetica,Arial,sans-serif" font-size="14.00">σ(B, C)</text>
</g>
<!-- a&#45;v1&#45;&gt;new&#45;version&#45;tx&#45;a -->
<g id="edge3" class="edge">
<title>a&#45;v1&#45;&gt;new&#45;version&#45;tx&#45;a</title>
<path fill="none" stroke="black" d="M347.68,-104.21C355.96,-100.97 364.47,-97.63 372.49,-94.49"/>
<polygon fill="black" stroke="black" points="373.61,-97.81 381.64,-90.9 371.06,-91.29 373.61,-97.81"/>
</g>
<!-- b&#45;v2 -->
<g id="node4" class="node">
<title>b&#45;v2</title>
<polygon fill="none" stroke="black" points="250.25,-0.5 250.25,-69.5 347.25,-69.5 347.25,-0.5 250.25,-0.5"/>
<text text-anchor="middle" x="298.75" y="-52.2" font-family="Helvetica,Arial,sans-serif" font-size="14.00">PoP</text>
<polyline fill="none" stroke="black" points="250.25,-46.5 347.25,-46.5"/>
<text text-anchor="middle" x="298.75" y="-29.2" font-family="Helvetica,Arial,sans-serif" font-size="14.00">1 ₳ + 1 pop.b</text>
<polyline fill="none" stroke="black" points="250.25,-23.5 347.25,-23.5"/>
<text text-anchor="middle" x="298.75" y="-6.2" font-family="Helvetica,Arial,sans-serif" font-size="14.00">data(b, v2)</text>
</g>
<!-- b&#45;v2&#45;&gt;new&#45;version&#45;tx&#45;a -->
<g id="edge4" class="edge">
<title>b&#45;v2&#45;&gt;new&#45;version&#45;tx&#45;a</title>
<path fill="none" stroke="lightgray" d="M347.68,-53.79C355.96,-57.03 364.47,-60.37 372.49,-63.51"/>
<polygon fill="lightgray" stroke="lightgray" points="371.06,-66.71 381.64,-67.1 373.61,-60.19 371.06,-66.71"/>
</g>
<!-- a&#45;v2 -->
<g id="node6" class="node">
<title>a&#45;v2</title>
<polygon fill="none" stroke="black" points="478.75,-44.5 478.75,-113.5 575.75,-113.5 575.75,-44.5 478.75,-44.5"/>
<text text-anchor="middle" x="527.25" y="-96.2" font-family="Helvetica,Arial,sans-serif" font-size="14.00">PoP</text>
<polyline fill="none" stroke="black" points="478.75,-90.5 575.75,-90.5"/>
<text text-anchor="middle" x="527.25" y="-73.2" font-family="Helvetica,Arial,sans-serif" font-size="14.00">1 ₳ + 1 pop.a</text>
<polyline fill="none" stroke="black" points="478.75,-67.5 575.75,-67.5"/>
<text text-anchor="middle" x="527.25" y="-50.2" font-family="Helvetica,Arial,sans-serif" font-size="14.00">data(a, v2)</text>
</g>
<!-- new&#45;version&#45;tx&#45;a&#45;&gt;a&#45;v2 -->
<g id="edge5" class="edge">
<title>new&#45;version&#45;tx&#45;a&#45;&gt;a&#45;v2</title>
<path fill="none" stroke="black" d="M443.2,-79C450.61,-79 458.85,-79 467.17,-79"/>
<polygon fill="black" stroke="black" points="466.99,-82.5 476.99,-79 466.99,-75.5 466.99,-82.5"/>
</g>
</g>
</svg>
